<svg width="48" height="49" viewBox="0 0 48 49" fill="none" xmlns="http://www.w3.org/2000/svg">
<path d="M43.5111 42.1808L36.6363 35.4594L36.4752 35.2144C36.1756 34.9161 35.7659 34.7481 35.3383 34.7481C34.9107 34.7481 34.5011 34.9161 34.2015 35.2144C28.359 40.5744 19.3563 40.8658 13.164 35.8952C6.97172 30.9246 5.51134 22.2345 9.75137 15.5881C13.9914 8.94172 22.6161 6.40147 29.9057 9.65205C37.1953 12.9026 40.8876 20.9354 38.534 28.423C38.3645 28.9639 38.5031 29.5521 38.8975 29.9661C39.2919 30.3801 39.8822 30.5569 40.4461 30.4299C41.01 30.303 41.4618 29.8916 41.6313 29.3507C44.4448 20.4651 40.1955 10.9029 31.6322 6.84989C23.069 2.7969 12.7617 5.46942 7.37811 13.1386C1.99454 20.8078 3.15036 31.1721 10.0979 37.5268C17.0454 43.8815 27.6996 44.3195 35.1683 38.5576L41.2553 44.5088C41.884 45.1208 42.9003 45.1208 43.529 44.5088C44.157 43.8882 44.157 42.889 43.529 42.2683L43.5111 42.1808Z" fill="black"/>
</svg>
